<svg width="165" height="161" viewBox="0 0 165 161" fill="none" xmlns="http://www.w3.org/2000/svg">
<rect x="2.5" y="18.5" width="160" height="140" rx="52.5" fill="#83C1CF" stroke="white" stroke-width="5"/>
<rect x="2.5" y="2.5" width="160" height="140" rx="52.5" fill="#4979A2" stroke="white" stroke-width="5"/>
<path d="M42.7852 73.304L55.4002 67.7849V53.593L69.5922 61.4774L82.2072 55.9583L55.4002 40.1895L42.7852 46.497V73.304Z" fill="white"/>
<path d="M123.996 46.4996L112.958 40.9805L98.7658 48.8649L108.227 53.5955L41.998 84.3448V100.114L52.2478 104.844L67.2282 98.5367L57.7669 93.0176L123.996 63.0568V46.4996Z" fill="white"/>
<path d="M124 98.5387V73.3086L112.174 78.0392V92.2312L97.1932 85.1352L84.5781 92.2312L112.174 105.635L124 98.5387Z" fill="white"/>
<path d="M83.7827 106.421L76.6867 103.268L63.2832 109.575L83.7827 120.613L104.282 109.575L92.4555 103.268L83.7827 106.421Z" fill="white"/>
<path d="M83.7827 26L63.2832 36.2497L75.8983 44.1342L83.7827 40.1919L90.0902 44.1342L104.282 37.8266L83.7827 26Z" fill="white"/>
</svg>
