<svg width="165" height="161" viewBox="0 0 165 161" fill="none" xmlns="http://www.w3.org/2000/svg">
<rect x="2.5" y="18.5" width="160" height="140" rx="52.5" fill="#83C1CF" stroke="white" stroke-width="5"/>
<rect x="2.5" y="2.5" width="160" height="140" rx="52.5" fill="#4979A2" stroke="white" stroke-width="5"/>
<path d="M121.845 41.805C121.562 40.9707 121.224 40.7511 120.696 40.5425C119.542 40.1144 117.586 40.7621 117.586 40.7621C117.586 40.7621 48.3679 65.6606 44.4135 68.4161C43.5621 69.009 43.2768 69.3603 43.1353 69.7664C42.4517 71.7206 44.5814 72.5878 44.5814 72.5878L62.4223 78.4063C62.4223 78.4063 63.0872 78.5051 63.3242 78.3514C67.3828 75.7825 104.158 52.5526 106.279 51.7732C106.614 51.6744 106.862 51.7842 106.796 52.0147C105.947 55.0008 74.0056 83.4014 74.0056 83.4014C74.0056 83.4014 73.8839 83.5551 73.8071 83.7307L73.7654 83.7087L72.1009 101.417C72.1009 101.417 71.403 106.84 76.8244 101.417C80.6494 97.5852 84.3503 94.3795 86.2024 92.8316C92.337 97.0692 98.939 101.757 101.788 104.205C103.219 105.435 104.416 105.632 105.402 105.599C108.106 105.5 108.861 102.525 108.861 102.525C108.861 102.525 121.475 51.7293 121.896 44.9228C121.938 44.2531 121.995 43.836 121.999 43.3749C122.007 42.7381 121.948 42.1014 121.845 41.805Z" fill="white"/>
</svg>
