<svg width="165" height="161" viewBox="0 0 165 161" fill="none" xmlns="http://www.w3.org/2000/svg">
<rect x="2.5" y="18.5" width="160" height="140" rx="52.5" fill="#83C1CF" stroke="white" stroke-width="5"/>
<rect x="2.5" y="2.5" width="160" height="140" rx="52.5" fill="#4979A2" stroke="white" stroke-width="5"/>
<path d="M101.497 107.413L80.481 76.8783L77.4881 72.5318L53.1014 37.1001H63.5915L83.3133 65.7545L86.3059 70.1011L111.987 107.413H101.497ZM116.324 104.43L89.8538 65.9746L86.8612 61.6254L67.9262 34.1168L66.3569 31.8371H43.0898L48.7643 40.0827L73.9403 76.6629L76.9331 81.0075L97.1617 110.399L98.7311 112.676H121.998L116.324 104.43Z" fill="white"/>
<path d="M77.4891 72.5317L80.482 76.8783L76.9341 81.0075L49.7127 112.676H43L73.9414 76.6629L77.4891 72.5317Z" fill="white"/>
<path d="M119.2 31.8366L89.8569 65.9741L86.309 70.1006L83.3164 65.754L86.8643 61.6249L106.741 38.4894L112.488 31.8366H119.2Z" fill="white"/>
</svg>
